<svg xmlns="http://www.w3.org/2000/svg" width="146.249" height="30" viewBox="0 0 146.249 30">
    <defs>
        <style>
            .cls-1 {
            fill: #fff;
            }
        </style>
    </defs>
    <g id="그룹_1970" transform="translate(-549.999 -40.002)">
        <g id="그룹_2" transform="translate(-1087.5 -1094)">
            <g id="그룹_3" transform="translate(1637.5 1134)">
                <g id="그룹_2-2">
                    <path id="패스_1" class="cls-1"
                          d="M795.809,510.016c8.159-7,17.789-6.254,21.667-1.908,2.464,2.762,2.424,6.943,1.162,11.166a23.251,23.251,0,0,1-7.078,10.478,20.683,20.683,0,0,1-14.56,5.02c-2.832-.127-5.43-1.071-6.882-3.177C786.994,527.053,787.576,517.083,795.809,510.016Zm.279,9.159c-.55,7.753,1.918,12.29,6.729,12.631,4.6.326,8.539-5.081,9.04-12.154.5-7.01-1.961-11.548-7.242-11.743C799.965,507.736,796.592,512.061,796.088,519.175Z"
                          transform="translate(-788.37 -504.794)"/>
                </g>
                <path id="패스_2" class="cls-1"
                      d="M914.578,507.109c-5.261-2.693-13.822-.2-19.248,7.656-5.493,7.949-4.116,15.863-.7,18.78,4.715,4.022,15.7,1.472,20.234-6.273l-1.362-1.017c-1.137,2.07-4.017,5.207-7.486,5.222-4.61.021-7.54-3.1-6.934-11.057.511-6.7,3.49-11.978,7.452-11.561,2.873.3,3.65,3.088,3.015,6.308-.794,4.029-3.284,6.624-7.959,7.132l.06,1.264c5.595-.021,11.433-2.844,14.1-6.6C918.034,513.762,918.181,508.954,914.578,507.109Z"
                      transform="translate(-847.638 -505.523)"/>
                <path id="패스_3" class="cls-1"
                      d="M1003.3,506.428a10.251,10.251,0,0,0-5.867,6.759c.464-3.594-.2-6.168-2.291-7.8l-8.642,4.818a.078.078,0,0,0,.025.143c.893.162,4.384,1.049,3.971,4.955-.191,1.807-3.015,17.769-3.015,17.769h7.127l2.561-15.021c.961-5.077,2.882-7.489,5.552-7.6,2.251-.1,4.08,2.277,4.346,6.182a.116.116,0,0,0,.216.052l5.3-9.569S1007.827,504.359,1003.3,506.428Z"
                      transform="translate(-902.065 -505.136)"/>
                <path id="패스_4" class="cls-1"
                      d="M1088.358,525.89c.34-1.578,2.469-9.491,4.11-16.643a11.453,11.453,0,0,0-5.578-2.678,17.5,17.5,0,0,0-13.9,2.841c-7.5,5.036-12.82,18.555-7.327,23.47,4.625,4.139,11.919,1.523,14.551-1.861l-1.009-1.1a4.721,4.721,0,0,1-3.507,1.9c-4.537.156-5.841-5.05-5.206-10.876.528-4.845,1.964-9.518,6.329-11.812,3.406-1.791,8.915-.57,7.711,4.839-.714,3.208-2.916,11.6-3.031,14.906-.12,3.436,1.093,5.185,2.429,6.043l7.159-4.351a.149.149,0,0,0-.045-.273C1088.958,529.868,1087.793,528.512,1088.358,525.89Z"
                      transform="translate(-946.22 -505.584)"/>
            </g>
        </g>
    </g>
</svg>
